<?xml version="1.0" standalone="no"?>
<!DOCTYPE svg PUBLIC "-//W3C//DTD SVG 20010904//EN"
 "http://www.w3.org/TR/2001/REC-SVG-20010904/DTD/svg10.dtd">
<svg version="1.0" xmlns="http://www.w3.org/2000/svg"
 width="720.000000pt" height="720.000000pt" viewBox="0 0 720.000000 720.000000"
 preserveAspectRatio="xMidYMid meet">

<g transform="translate(0.000000,720.000000) scale(0.100000,-0.100000)"
fill="#000000" stroke="none">
<path d="M3004 5404 c-28 -29 -34 -43 -34 -78 0 -35 6 -48 33 -74 19 -18 57
-41 85 -52 65 -25 79 -25 61 -3 -10 11 -10 14 -1 9 18 -11 15 -2 -8 24 -12 13
-18 30 -16 37 3 8 -1 16 -10 20 -8 3 -13 12 -10 19 3 8 0 13 -7 11 -7 -1 -12
10 -11 30 0 22 -3 30 -13 26 -10 -4 -13 1 -9 21 3 16 0 25 -7 23 -7 -1 -11 4
-9 11 4 20 -9 14 -44 -24z"/>
<path d="M2820 4986 c-206 -44 -369 -144 -495 -306 l-20 -25 25 21 c14 12 58
43 98 69 182 116 344 164 587 172 145 5 402 -9 440 -23 10 -4 15 0 15 11 0 9
-4 13 -10 10 -5 -3 -10 1 -10 10 0 9 -4 14 -9 11 -5 -4 -11 -1 -13 5 -2 6 -44
20 -93 31 -117 26 -417 34 -515 14z"/>
<path d="M2916 4800 c-270 -43 -484 -172 -613 -372 -45 -69 -97 -177 -90 -185
2 -2 17 13 33 34 205 273 447 409 819 457 61 8 154 16 207 17 84 1 97 4 101
20 3 10 -2 20 -12 24 -26 11 -381 15 -445 5z"/>
<path d="M3046 4630 c-137 -29 -216 -56 -323 -109 -200 -101 -334 -249 -398
-440 -37 -113 -31 -125 20 -37 80 140 170 241 305 340 136 100 383 203 591
245 l94 19 -100 0 c-60 1 -135 -7 -189 -18z"/>
<path d="M3675 4503 c-667 -81 -1140 -305 -1279 -603 -25 -55 -30 -80 -34
-167 -5 -121 15 -203 80 -323 165 -304 484 -517 907 -607 115 -25 145 -27 351
-27 233 0 268 4 462 51 98 24 106 27 97 44 -7 13 -6 19 1 19 6 0 4 7 -4 16 -9
8 -14 20 -10 25 3 5 0 8 -7 7 -9 -2 -13 8 -12 32 1 19 -1 27 -3 17 -7 -24 -23
-12 -17 13 4 13 -3 27 -18 40 -13 10 -20 19 -16 20 5 0 -1 13 -12 29 -11 15
-19 38 -16 49 2 13 -1 21 -8 19 -7 -1 -11 8 -11 20 1 12 -4 21 -10 20 -6 -1
-10 4 -9 11 2 6 -7 12 -19 12 -21 0 -21 0 -2 14 18 14 18 15 1 22 -10 3 -16
13 -13 20 3 8 -1 14 -9 14 -8 0 -12 8 -10 20 2 12 -2 20 -9 20 -9 0 -13 10
-11 29 3 34 6 33 -181 11 -175 -21 -362 2 -524 66 -162 64 -284 172 -349 307
-32 67 -66 175 -58 184 2 1 188 3 415 4 349 1 412 4 412 16 0 8 5 11 12 7 7
-4 8 -3 4 4 -4 7 -13 12 -21 12 -17 0 -27 27 -12 34 7 3 6 5 -3 5 -16 1 -55
75 -53 99 1 8 -5 11 -15 8 -13 -5 -12 -2 2 9 16 12 17 15 4 15 -9 0 -19 7 -22
16 -4 10 -2 13 7 9 6 -4 4 0 -5 8 -10 8 -18 22 -18 31 0 9 -5 16 -10 16 -6 0
-8 11 -6 24 3 19 1 23 -10 19 -11 -4 -14 1 -10 20 3 19 1 24 -10 20 -8 -3 -14
1 -14 11 0 9 -5 16 -11 16 -8 0 -7 6 2 17 9 11 10 14 2 9 -8 -4 -11 -2 -8 7 9
22 304 61 469 62 123 1 140 3 142 18 1 9 -2 15 -7 11 -5 -3 -6 -11 -3 -17 4
-7 3 -8 -2 -4 -5 5 -10 13 -10 18 -1 5 -2 13 -3 18 -3 22 -141 41 -288 40 -81
-1 -161 -4 -178 -6z"/>
<path d="M3405 2566 c-40 -18 -60 -41 -86 -101 -63 -142 11 -321 148 -361 62
-18 145 -7 200 27 42 26 37 35 -13 19 -83 -28 -193 16 -239 94 -75 128 -43
325 50 314 15 -2 34 -13 42 -24 13 -20 11 -23 -22 -44 -47 -29 -69 -63 -60
-91 4 -12 34 -50 66 -85 33 -35 59 -68 59 -72 0 -5 -9 -21 -21 -36 -27 -34
-18 -33 35 4 76 51 74 71 -9 160 -36 38 -65 75 -65 83 0 19 43 57 63 57 10 0
34 -7 54 -15 35 -15 37 -15 65 12 l28 27 -38 14 c-67 25 -76 25 -102 -3 l-24
-25 -20 25 c-26 31 -71 40 -111 21z"/>
<path d="M4043 2550 c-27 -11 -39 -53 -27 -89 7 -19 30 -37 88 -66 53 -26 86
-50 98 -70 22 -37 24 -133 3 -161 -14 -19 -15 -19 -52 2 l-38 22 0 94 0 94
-35 -12 -35 -12 -3 -83 c-2 -46 -7 -88 -13 -95 -7 -9 0 -15 25 -24 20 -6 44
-22 54 -35 l19 -24 48 32 c59 39 95 101 95 164 0 79 -41 127 -152 178 -74 34
-86 49 -63 75 20 22 20 23 -12 10z"/>
<path d="M2755 2535 c-16 -9 -36 -24 -43 -33 -12 -16 -15 -15 -33 7 -23 28
-24 25 -4 -22 19 -46 22 -296 3 -315 -8 -8 -4 -14 18 -22 16 -6 43 -22 61 -36
l32 -24 58 61 c93 97 103 149 43 224 -17 21 -30 42 -30 47 0 4 -18 -4 -41 -19
-37 -25 -39 -28 -20 -35 53 -19 78 -125 46 -188 -18 -35 -18 -35 -56 -13 l-29
17 1 167 c0 174 1 181 44 192 l20 5 -20 1 c-11 0 -33 -6 -50 -14z"/>
<path d="M4658 2493 c6 -2 18 -2 25 0 6 3 1 5 -13 5 -14 0 -19 -2 -12 -5z"/>
<path d="M4730 2482 c28 -14 35 -23 35 -47 0 -26 -4 -30 -29 -33 -18 -2 -40 4
-56 17 l-27 20 -52 -48 c-60 -55 -63 -75 -24 -137 l28 -43 33 32 33 32 35 -38
c29 -31 33 -41 24 -57 -14 -26 -30 -25 -89 5 l-48 24 -23 -24 -23 -24 27 -11
c15 -5 31 -10 35 -10 5 0 20 -10 35 -21 15 -12 31 -18 35 -13 111 121 114 132
63 186 l-25 27 36 41 c21 22 37 49 37 61 0 25 -52 79 -77 79 -11 0 -5 -7 17
-18z m-60 -119 l51 -26 -30 -31 c-27 -26 -33 -28 -55 -18 -14 6 -33 23 -42 37
-16 24 -16 27 1 45 10 11 19 20 21 20 1 0 25 -12 54 -27z"/>
<path d="M3147 2405 c-16 -20 -23 -36 -17 -40 6 -3 10 -48 10 -99 0 -73 -3
-96 -16 -107 -11 -9 -20 -10 -32 -2 -14 8 -18 32 -22 114 -6 112 -12 134 -41
149 -27 15 -33 13 -52 -19 -21 -36 -21 -39 1 -37 15 1 17 -11 20 -101 2 -66
-1 -103 -8 -103 -5 0 -10 -4 -10 -10 0 -5 6 -10 14 -10 8 0 27 -11 42 -24 l28
-23 34 33 34 33 25 -29 c31 -38 58 -38 77 -1 14 27 14 29 -4 34 -18 5 -20 14
-20 99 0 52 4 98 9 104 6 5 -1 21 -18 41 l-27 32 -27 -34z"/>
<path d="M2515 2414 c-72 -37 -103 -99 -91 -182 7 -55 27 -92 64 -119 l30 -22
46 25 c45 25 61 39 31 28 -28 -11 -75 17 -96 58 -11 21 -17 43 -14 48 3 5 33
19 66 31 33 12 62 25 64 29 8 13 -44 120 -57 120 -7 0 -26 -7 -43 -16z m19
-47 c29 -70 29 -72 -7 -85 -18 -7 -36 -12 -40 -12 -11 0 -8 89 3 111 15 28 28
24 44 -14z"/>
<path d="M3835 2409 c-27 -10 -60 -18 -72 -19 -22 0 -23 -3 -23 -103 0 -62 -4
-107 -11 -114 -8 -8 -5 -13 12 -18 13 -4 41 -20 62 -37 30 -23 38 -26 43 -14
3 8 23 27 45 42 56 38 83 86 76 134 -5 39 -62 151 -75 149 -4 -1 -29 -10 -57
-20z m44 -74 c47 -69 55 -126 22 -166 l-18 -22 -37 22 -36 23 0 98 c0 70 4
100 13 103 15 5 9 12 56 -58z"/>
<path d="M4405 2414 c-72 -37 -103 -99 -91 -182 7 -55 27 -92 64 -119 l30 -22
46 25 c45 25 61 39 31 28 -28 -11 -75 17 -96 58 -11 21 -17 43 -14 48 3 5 33
19 66 31 33 12 62 25 64 29 8 13 -44 120 -57 120 -7 0 -26 -7 -43 -16z m19
-47 c29 -70 29 -72 -7 -85 -18 -7 -36 -12 -40 -12 -11 0 -8 89 3 111 15 28 28
24 44 -14z"/>
</g>
</svg>
